<svg viewBox="0 0 24 24" xmlns="http://www.w3.org/2000/svg">
<path d="M18.7215 11.4375C18.4505 8.15953 15.8405 5.54953 12.5625 5.27848V3H11.4375V5.27848C8.15953 5.54953 5.54953 8.15953 5.27848 11.4375H3V12.5625H5.27848C5.54953 15.8405 8.15953 18.4505 11.4375 18.7215V21H12.5625V18.7215C15.8405 18.4505 18.4505 15.8405 18.7215 12.5625H21V11.4375H18.7215ZM12 17.625C8.89852 17.625 6.375 15.1015 6.375 12C6.375 8.89852 8.89852 6.375 12 6.375C15.1015 6.375 17.625 8.89852 17.625 12C17.625 15.1015 15.1015 17.625 12 17.625ZM12 8.625C10.136 8.625 8.625 10.136 8.625 12C8.625 13.864 10.136 15.375 12 15.375C13.864 15.375 15.375 13.864 15.375 12C15.375 10.136 13.864 8.625 12 8.625ZM12 14.25C10.7593 14.25 9.75 13.2407 9.75 12C9.75 10.7593 10.7593 9.75 12 9.75C13.2407 9.75 14.25 10.7593 14.25 12C14.25 13.2407 13.2407 14.25 12 14.25Z" fill="currentColor" />
</svg>
